<svg xmlns="http://www.w3.org/2000/svg" viewBox="0 0 48 56" fill="none" aria-hidden="true">
  <defs>
    <linearGradient id="spark-gold" x1="0%" y1="0%" x2="0%" y2="100%">
      <stop offset="0%" stop-color="#fff0c8" />
      <stop offset="40%" stop-color="#e8c878" />
      <stop offset="75%" stop-color="#c9a050" />
      <stop offset="100%" stop-color="#8b6914" />
    </linearGradient>
    <linearGradient id="spark-teal" x1="0%" y1="0%" x2="100%" y2="100%">
      <stop offset="0%" stop-color="#6a9a98" />
      <stop offset="100%" stop-color="#2a4a48" />
    </linearGradient>
  </defs>
  <g transform="translate(24 4)">
    <path
      d="M-18 42 C-28 18 -14 4 0 0 C10 4 18 16 14 32 C8 22 2 18 -6 26 C-10 32 -14 38 -18 42Z"
      fill="url(#spark-teal)"
    />
    <path
      d="M0 0 C14 6 22 22 18 42 C12 30 6 24 0 28 C-4 24 -8 30 -10 38 C-6 22 0 8 0 0Z"
      fill="url(#spark-gold)"
    />
    <path
      d="M18 42 C28 18 14 4 0 0 C10 8 16 20 14 34 C16 28 20 34 18 42Z"
      fill="url(#spark-gold)"
    />
  </g>
</svg>
