<svg xmlns="http://www.w3.org/2000/svg" viewBox="0 0 88 72" fill="none" aria-hidden="true">
  <!-- Soft hand-ink gazebo — line sketch for page corners -->
  <path
    d="M10 30.5c8.5-10 19-18.5 34-22.5 15 4 25.5 12.5 34 22.5"
    stroke="#6a5640"
    stroke-width="1.55"
    stroke-linecap="round"
    stroke-linejoin="round"
  />
  <path
    d="M16 30.5 44 12.5 72 30.5"
    stroke="#6a5640"
    stroke-width="1.2"
    stroke-linecap="round"
    stroke-linejoin="round"
    opacity="0.85"
  />
  <path
    d="M40.5 11.5c1.2-4.2 3.2-6.8 3.5-6.8s2.2 2.5 3.4 6.6"
    stroke="#6a5640"
    stroke-width="1.15"
    stroke-linecap="round"
  />
  <path d="M20 30.5v27" stroke="#6a5640" stroke-width="1.3" stroke-linecap="round" />
  <path d="M44 29v28.5" stroke="#6a5640" stroke-width="1.15" stroke-linecap="round" opacity="0.9" />
  <path d="M68 30.5v27" stroke="#6a5640" stroke-width="1.3" stroke-linecap="round" />
  <path
    d="M20 43.5h48"
    stroke="#6a5640"
    stroke-width="1.1"
    stroke-linecap="round"
    opacity="0.95"
  />
  <path
    d="M26 43.5v8M32.5 43.5v8M38.5 43.5v8M50 43.5v8M56.5 43.5v8M62.5 43.5v8"
    stroke="#6a5640"
    stroke-width="0.85"
    stroke-linecap="round"
    opacity="0.65"
  />
  <path
    d="M14 58.5c9.5 3.2 25 3.6 30 3.4 5 .2 20.5-.2 30-3.4"
    stroke="#6a5640"
    stroke-width="1.25"
    stroke-linecap="round"
  />
  <path
    d="M28 22c2.5 3 5.5 4.5 8.5 4.2M52 21.5c-2 2.8-4.8 4.4-7.8 4.5"
    stroke="#6a5640"
    stroke-width="0.8"
    stroke-linecap="round"
    opacity="0.55"
  />
</svg>
